<svg width="242" height="242" viewBox="0 0 242 242" fill="none" xmlns="http://www.w3.org/2000/svg">
<rect width="242" height="242" rx="121" fill="#22B573"/>
<path d="M162 84C162 100.569 148.569 114 132 114C115.431 114 102 100.569 102 84C102 67.4315 115.431 54 132 54C148.569 54 162 67.4315 162 84ZM120 84C120 90.6274 125.373 96 132 96C138.627 96 144 90.6274 144 84C144 77.3726 138.627 72 132 72C125.373 72 120 77.3726 120 84Z" fill="white"/>
<path d="M93 84C93 100.569 79.5685 114 63 114C46.4315 114 33 100.569 33 84C33 67.4315 46.4315 54 63 54C79.5685 54 93 67.4315 93 84ZM51 84C51 90.6274 56.3726 96 63 96C69.6274 96 75 90.6274 75 84C75 77.3726 69.6274 72 63 72C56.3726 72 51 77.3726 51 84Z" fill="white"/>
<rect x="75" y="45" width="18" height="48" rx="9" fill="white"/>
<path d="M89 155.5C89 171.792 102.208 185 118.5 185C134.792 185 148 171.792 148 155.5C148 139.208 134.792 126 118.5 126C102.208 126 89 139.208 89 155.5ZM130.3 155.5C130.3 162.017 125.017 167.3 118.5 167.3C111.983 167.3 106.7 162.017 106.7 155.5C106.7 148.983 111.983 143.7 118.5 143.7C125.017 143.7 130.3 148.983 130.3 155.5Z" fill="white"/>
<rect width="18" height="56" rx="9" transform="matrix(-1 0 0 1 107 108)" fill="white"/>
<path d="M77.3894 138.937C73.9775 140.907 70.2188 142.199 66.3277 142.739C62.4366 143.279 58.4894 143.056 54.7114 142.084C50.9334 141.112 47.3987 139.41 44.309 137.073C41.2194 134.737 38.6353 131.813 36.7043 128.469L52.2927 119.469C53.0651 120.807 54.0988 121.976 55.3346 122.911C56.5705 123.845 57.9844 124.526 59.4956 124.915C61.0068 125.304 62.5856 125.393 64.1421 125.177C65.6985 124.961 67.202 124.444 68.5668 123.656L77.3894 138.937Z" fill="white"/>
<circle cx="44.7942" cy="124.481" r="9" transform="rotate(60 44.7942 124.481)" fill="white"/>
<path d="M206.386 135.028C203.102 131.347 198.96 128.532 194.328 126.834C189.696 125.135 184.717 124.605 179.831 125.291C174.945 125.977 170.304 127.857 166.319 130.764C162.333 133.672 159.126 137.518 156.982 141.961C154.838 146.404 153.822 151.308 154.026 156.237C154.229 161.166 155.645 165.969 158.148 170.221C160.651 174.472 164.164 178.041 168.375 180.61C172.587 183.18 177.367 184.671 182.293 184.951L183.317 166.981C181.347 166.868 179.435 166.272 177.75 165.244C176.066 164.216 174.66 162.789 173.659 161.088C172.658 159.388 172.092 157.466 172.01 155.495C171.929 153.523 172.335 151.562 173.193 149.784C174.05 148.007 175.333 146.469 176.927 145.306C178.522 144.143 180.378 143.391 182.332 143.116C184.287 142.842 186.278 143.054 188.131 143.734C189.984 144.413 191.641 145.539 192.954 147.011L206.386 135.028Z" fill="white"/>
<path d="M214 155C214 147.044 210.839 139.413 205.213 133.787L192.485 146.515C194.736 148.765 196 151.817 196 155H214Z" fill="white"/>
<circle cx="184" cy="176" r="9" fill="white"/>
<rect x="181" y="146" width="33" height="18" rx="9" fill="white"/>
</svg>
