<svg width="192" height="140" viewBox="0 0 192 140" fill="none" xmlns="http://www.w3.org/2000/svg">
<path d="M140 39C140 55.5685 126.569 69 110 69C93.4315 69 80 55.5685 80 39C80 22.4315 93.4315 9 110 9C126.569 9 140 22.4315 140 39ZM98 39C98 45.6274 103.373 51 110 51C116.627 51 122 45.6274 122 39C122 32.3726 116.627 27 110 27C103.373 27 98 32.3726 98 39Z" fill="#22B573"/>
<path d="M71 39C71 55.5685 57.5685 69 41 69C24.4315 69 11 55.5685 11 39C11 22.4315 24.4315 9 41 9C57.5685 9 71 22.4315 71 39ZM29 39C29 45.6274 34.3726 51 41 51C47.6274 51 53 45.6274 53 39C53 32.3726 47.6274 27 41 27C34.3726 27 29 32.3726 29 39Z" fill="#22B573"/>
<rect x="53" width="18" height="48" rx="9" fill="#22B573"/>
<path d="M67 110.5C67 126.792 80.2076 140 96.5 140C112.792 140 126 126.792 126 110.5C126 94.2076 112.792 81 96.5 81C80.2076 81 67 94.2076 67 110.5ZM108.3 110.5C108.3 117.017 103.017 122.3 96.5 122.3C89.983 122.3 84.7 117.017 84.7 110.5C84.7 103.983 89.983 98.7 96.5 98.7C103.017 98.7 108.3 103.983 108.3 110.5Z" fill="#22B573"/>
<rect width="18" height="56" rx="9" transform="matrix(-1 0 0 1 85 63)" fill="#22B573"/>
<path d="M55.3894 93.9374C51.9775 95.9072 48.2188 97.199 44.3277 97.7389C40.4366 98.2789 36.4894 98.0565 32.7114 97.0844C28.9334 96.1123 25.3987 94.4095 22.309 92.0733C19.2194 89.7371 16.6353 86.8133 14.7043 83.4687L30.2927 74.4687C31.0651 75.8065 32.0988 76.9761 33.3346 77.9105C34.5705 78.845 35.9844 79.5261 37.4956 79.915C39.0068 80.3038 40.5856 80.3928 42.1421 80.1768C43.6985 79.9608 45.202 79.4441 46.5668 78.6562L55.3894 93.9374Z" fill="#22B573"/>
<circle cx="22.7941" cy="79.4808" r="9" transform="rotate(60 22.7941 79.4808)" fill="#22B573"/>
<path d="M184.386 90.0283C181.102 86.3469 176.96 83.5323 172.328 81.8339C167.696 80.1354 162.717 79.6055 157.831 80.2911C152.945 80.9767 148.304 82.8566 144.319 85.7643C140.333 88.672 137.126 92.5177 134.982 96.9609C132.838 101.404 131.822 106.308 132.026 111.237C132.229 116.166 133.645 120.969 136.148 125.221C138.651 129.472 142.164 133.041 146.375 135.61C150.587 138.18 155.367 139.671 160.293 139.951L161.317 121.981C159.347 121.868 157.435 121.272 155.75 120.244C154.066 119.216 152.66 117.789 151.659 116.088C150.658 114.388 150.092 112.466 150.01 110.495C149.929 108.523 150.335 106.562 151.193 104.784C152.05 103.007 153.333 101.469 154.927 100.306C156.522 99.1426 158.378 98.3907 160.332 98.1164C162.287 97.8422 164.278 98.0542 166.131 98.7335C167.984 99.4129 169.641 100.539 170.954 102.011L184.386 90.0283Z" fill="#22B573"/>
<path d="M192 110C192 102.044 188.839 94.4129 183.213 88.7868L170.485 101.515C172.736 103.765 174 106.817 174 110H192Z" fill="#22B573"/>
<circle cx="162" cy="131" r="9" fill="#22B573"/>
<rect x="159" y="101" width="33" height="18" rx="9" fill="#22B573"/>
</svg>
