<svg width="654" height="394" viewBox="0 0 654 394" fill="none" xmlns="http://www.w3.org/2000/svg">
<circle cx="205" cy="162" r="106" fill="#009C60"/>
<circle cx="477.5" cy="140.5" r="140.5" fill="#078957"/>
<path d="M113.525 346V307.408H25.1088V270.544L103.445 144.976H154.709V274H180.053V307.408H154.709V346H113.525ZM59.6688 274H113.525V189.616H110.645L59.6688 274ZM275.556 349.456C249.252 349.456 229.764 340.336 217.092 322.096C204.42 303.856 198.084 278.32 198.084 245.488C198.084 212.656 204.42 187.12 217.092 168.88C229.764 150.64 249.252 141.52 275.556 141.52C301.86 141.52 321.348 150.64 334.02 168.88C346.692 187.12 353.028 212.656 353.028 245.488C353.028 278.32 346.692 303.856 334.02 322.096C321.348 340.336 301.86 349.456 275.556 349.456ZM275.556 312.88C287.076 312.88 295.044 308.656 299.46 300.208C303.876 291.76 306.084 279.856 306.084 264.496V226.48C306.084 211.12 303.876 199.216 299.46 190.768C295.044 182.32 287.076 178.096 275.556 178.096C264.036 178.096 256.068 182.32 251.652 190.768C247.236 199.216 245.028 211.12 245.028 226.48V264.496C245.028 279.856 247.236 291.76 251.652 300.208C256.068 308.656 264.036 312.88 275.556 312.88ZM458.9 346V307.408H370.484V270.544L448.82 144.976H500.084V274H525.428V307.408H500.084V346H458.9ZM405.044 274H458.9V189.616H456.02L405.044 274Z" fill="black"/>
<circle cx="14.5" cy="237.5" r="14.5" fill="#009C60"/>
<circle cx="618" cy="300" r="36" fill="#009C60"/>
</svg>
