<svg width="117" height="110" viewBox="0 0 117 110" fill="none" xmlns="http://www.w3.org/2000/svg">
<path d="M85.3124 47.7656C85.3124 57.8621 77.1276 66.0469 67.0311 66.0469C56.9347 66.0469 48.7499 57.8621 48.7499 47.7656C48.7499 37.6692 56.9347 29.4844 67.0311 29.4844C77.1276 29.4844 85.3124 37.6692 85.3124 47.7656ZM59.7186 47.7656C59.7186 51.8042 62.9925 55.0781 67.0311 55.0781C71.0697 55.0781 74.3436 51.8042 74.3436 47.7656C74.3436 43.727 71.0697 40.4531 67.0311 40.4531C62.9925 40.4531 59.7186 43.727 59.7186 47.7656Z" fill="#22B573"/>
<path d="M43.2656 47.7656C43.2656 57.8621 35.0808 66.0469 24.9844 66.0469C14.8879 66.0469 6.70312 57.8621 6.70312 47.7656C6.70312 37.6692 14.8879 29.4844 24.9844 29.4844C35.0808 29.4844 43.2656 37.6692 43.2656 47.7656ZM17.6719 47.7656C17.6719 51.8042 20.9458 55.0781 24.9844 55.0781C29.023 55.0781 32.2969 51.8042 32.2969 47.7656C32.2969 43.727 29.023 40.4531 24.9844 40.4531C20.9458 40.4531 17.6719 43.727 17.6719 47.7656Z" fill="#22B573"/>
<rect x="32.2969" y="24" width="10.9688" height="29.25" rx="5.48438" fill="#22B573"/>
<path d="M40.8279 91.3359C40.8279 101.264 48.8763 109.312 58.8044 109.312C68.7326 109.312 76.781 101.264 76.781 91.3359C76.781 81.4078 68.7326 73.3594 58.8044 73.3594C48.8763 73.3594 40.8279 81.4078 40.8279 91.3359ZM65.9951 91.3359C65.9951 95.3072 62.7757 98.5266 58.8044 98.5266C54.8332 98.5266 51.6138 95.3072 51.6138 91.3359C51.6138 87.3647 54.8332 84.1453 58.8044 84.1453C62.7757 84.1453 65.9951 87.3647 65.9951 91.3359Z" fill="#22B573"/>
<rect width="10.9688" height="34.125" rx="5.48438" transform="matrix(-1 0 0 1 51.7971 62.3905)" fill="#22B573"/>
<path d="M33.753 81.2431C31.6739 82.4435 29.3834 83.2306 27.0122 83.5597C24.6411 83.8887 22.2358 83.7532 19.9336 83.1608C17.6314 82.5684 15.4774 81.5308 13.5946 80.1072C11.7119 78.6836 10.1372 76.9018 8.96048 74.8637L18.4597 69.3794C18.9304 70.1946 19.5603 70.9073 20.3134 71.4767C21.0665 72.0462 21.9281 72.4612 22.8489 72.6982C23.7698 72.9351 24.7319 72.9893 25.6804 72.8577C26.6289 72.7261 27.5451 72.4112 28.3767 71.9311L33.753 81.2431Z" fill="#22B573"/>
<circle cx="13.8905" cy="72.4336" r="5.48438" transform="rotate(60 13.8905 72.4336)" fill="#22B573"/>
<path d="M112.36 78.861C110.359 76.6176 107.835 74.9025 105.013 73.8675C102.19 72.8325 99.1557 72.5096 96.1785 72.9274C93.2013 73.3451 90.3731 74.4907 87.9444 76.2626C85.5157 78.0345 83.5614 80.378 82.2547 83.0856C80.9481 85.7931 80.3293 88.7811 80.4532 91.7849C80.5772 94.7888 81.44 97.7156 82.9653 100.306C84.4906 102.897 86.6313 105.072 89.1977 106.637C91.7642 108.203 94.6771 109.112 97.6786 109.283L98.3028 98.3319C97.1022 98.2635 95.937 97.9 94.9104 97.2737C93.8839 96.6474 93.0276 95.7776 92.4175 94.7413C91.8074 93.705 91.4622 92.5343 91.4126 91.3327C91.3631 90.1312 91.6106 88.936 92.1332 87.853C92.6559 86.7699 93.4376 85.8325 94.4091 85.1238C95.3806 84.415 96.5119 83.9568 97.7028 83.7897C98.8936 83.6226 100.107 83.7518 101.236 84.1658C102.365 84.5798 103.375 85.2658 104.176 86.1631L112.36 78.861Z" fill="#22B573"/>
<path d="M117 91.0312C117 86.1828 115.074 81.5329 111.646 78.1045L103.89 85.8605C105.261 87.2319 106.031 89.0919 106.031 91.0312H117Z" fill="#22B573"/>
<circle cx="98.7184" cy="103.828" r="5.48438" fill="#22B573"/>
<rect x="96.891" y="85.5469" width="20.1094" height="10.9688" rx="5.48438" fill="#22B573"/>
<path d="M66.9719 23.0675L70.6709 18.545C77.0295 10.7709 88.4864 9.62342 96.2605 15.982L101.604 20.3527C102.987 21.484 103.191 23.5225 102.06 24.9057C100.929 26.2889 98.8903 26.4931 97.5071 25.3617L95.0096 23.319C94.3186 22.7538 93.3003 22.8558 92.7351 23.5468L92.6998 23.59C92.1346 24.2809 92.2366 25.2993 92.9276 25.8645C97.1105 29.2858 97.728 35.4504 94.3066 39.6333L91.4682 43.1037L66.9719 23.0675Z" fill="#D84F48"/>
<path d="M84.5345 50.781L60.8223 31.3862C59.27 30.1166 59.0387 27.8078 60.3084 26.2555L62.2333 23.902C63.5029 22.3498 65.8118 22.1185 67.3641 23.3882L91.0763 42.7829C92.6286 44.0526 92.8599 46.3614 91.5902 47.9137L89.6653 50.2671C88.3956 51.8194 86.0868 52.0506 84.5345 50.781Z" fill="#F1F2F2"/>
<path d="M99.0945 29.3185C101.603 31.37 105.299 30.9998 107.351 28.4916C109.402 25.9834 109.032 22.2871 106.524 20.2356C104.015 18.1841 100.319 18.5543 98.2676 21.0625C96.2161 23.5707 96.5863 27.267 99.0945 29.3185Z" fill="#F1F2F2"/>
</svg>
