<svg width="654" height="381" viewBox="0 0 654 381" fill="none" xmlns="http://www.w3.org/2000/svg">
<circle cx="205" cy="162" r="106" fill="#009C60"/>
<circle cx="618" cy="300" r="36" fill="#009C60"/>
<circle cx="477.5" cy="140.5" r="140.5" fill="#078957"/>
<path d="M142.525 316V277.408H54.1088V240.544L132.445 114.976H183.709V244H209.053V277.408H183.709V316H142.525ZM88.6688 244H142.525V159.616H139.645L88.6688 244ZM304.556 319.456C278.252 319.456 258.764 310.336 246.092 292.096C233.42 273.856 227.084 248.32 227.084 215.488C227.084 182.656 233.42 157.12 246.092 138.88C258.764 120.64 278.252 111.52 304.556 111.52C330.86 111.52 350.348 120.64 363.02 138.88C375.692 157.12 382.028 182.656 382.028 215.488C382.028 248.32 375.692 273.856 363.02 292.096C350.348 310.336 330.86 319.456 304.556 319.456ZM304.556 282.88C316.076 282.88 324.044 278.656 328.46 270.208C332.876 261.76 335.084 249.856 335.084 234.496V196.48C335.084 181.12 332.876 169.216 328.46 160.768C324.044 152.32 316.076 148.096 304.556 148.096C293.036 148.096 285.068 152.32 280.652 160.768C276.236 169.216 274.028 181.12 274.028 196.48V234.496C274.028 249.856 276.236 261.76 280.652 270.208C285.068 278.656 293.036 282.88 304.556 282.88ZM487.9 316V277.408H399.484V240.544L477.82 114.976H529.084V244H554.428V277.408H529.084V316H487.9ZM434.044 244H487.9V159.616H485.02L434.044 244Z" fill="black"/>
<path d="M106.712 360V326.496H122.552C124.12 326.496 125.528 326.768 126.776 327.312C128.024 327.824 129.08 328.544 129.944 329.472C130.84 330.4 131.528 331.536 132.008 332.88C132.488 334.192 132.728 335.632 132.728 337.2C132.728 338.8 132.488 340.256 132.008 341.568C131.528 342.88 130.84 344 129.944 344.928C129.08 345.856 128.024 346.592 126.776 347.136C125.528 347.648 124.12 347.904 122.552 347.904H114.008V360H106.712ZM114.008 341.568H121.688C122.776 341.568 123.624 341.296 124.232 340.752C124.872 340.176 125.192 339.344 125.192 338.256V336.144C125.192 335.056 124.872 334.24 124.232 333.696C123.624 333.12 122.776 332.832 121.688 332.832H114.008V341.568ZM155.336 360L152.936 352.032H141.752L139.352 360H131.96L143 326.496H152.024L162.92 360H155.336ZM147.416 333.12H147.176L143.48 345.84H151.16L147.416 333.12ZM187.366 354.672H187.126C186.87 356.368 186.006 357.776 184.534 358.896C183.062 360.016 181.062 360.576 178.534 360.576C176.614 360.576 174.822 360.208 173.158 359.472C171.494 358.736 170.038 357.648 168.79 356.208C167.542 354.768 166.566 352.976 165.862 350.832C165.158 348.688 164.806 346.208 164.806 343.392C164.806 340.576 165.174 338.08 165.91 335.904C166.646 333.728 167.67 331.904 168.982 330.432C170.326 328.96 171.926 327.84 173.782 327.072C175.638 326.304 177.702 325.92 179.974 325.92C182.982 325.92 185.574 326.576 187.75 327.888C189.926 329.168 191.638 331.104 192.886 333.696L186.934 337.104C186.422 335.792 185.622 334.688 184.534 333.792C183.446 332.864 181.926 332.4 179.974 332.4C177.702 332.4 175.894 333.056 174.55 334.368C173.206 335.68 172.534 337.744 172.534 340.56V345.936C172.534 348.72 173.206 350.784 174.55 352.128C175.894 353.44 177.702 354.096 179.974 354.096C180.87 354.096 181.718 354 182.518 353.808C183.318 353.584 184.022 353.264 184.63 352.848C185.238 352.4 185.702 351.872 186.022 351.264C186.374 350.656 186.55 349.936 186.55 349.104V347.424H180.31V341.328H193.51V360H187.366V354.672ZM200.602 360V326.496H223.402V332.976H207.898V339.84H221.194V346.272H207.898V353.52H223.402V360H200.602ZM251.326 344.16L248.11 337.44H247.966V360H241.102V326.496H249.07L258.238 342.336L261.454 349.056H261.598V326.496H268.462V360H260.494L251.326 344.16ZM289.277 360.576C287.069 360.576 285.053 360.208 283.229 359.472C281.405 358.736 279.853 357.648 278.573 356.208C277.293 354.736 276.301 352.928 275.597 350.784C274.893 348.608 274.541 346.096 274.541 343.248C274.541 340.4 274.893 337.904 275.597 335.76C276.301 333.584 277.293 331.776 278.573 330.336C279.853 328.864 281.405 327.76 283.229 327.024C285.053 326.288 287.069 325.92 289.277 325.92C291.485 325.92 293.501 326.288 295.325 327.024C297.149 327.76 298.701 328.864 299.981 330.336C301.261 331.776 302.253 333.584 302.957 335.76C303.661 337.904 304.013 340.4 304.013 343.248C304.013 346.096 303.661 348.608 302.957 350.784C302.253 352.928 301.261 354.736 299.981 356.208C298.701 357.648 297.149 358.736 295.325 359.472C293.501 360.208 291.485 360.576 289.277 360.576ZM289.277 354.096C291.485 354.096 293.197 353.376 294.413 351.936C295.661 350.496 296.285 348.432 296.285 345.744V340.752C296.285 338.064 295.661 336 294.413 334.56C293.197 333.12 291.485 332.4 289.277 332.4C287.069 332.4 285.341 333.12 284.093 334.56C282.877 336 282.269 338.064 282.269 340.752V345.744C282.269 348.432 282.877 350.496 284.093 351.936C285.341 353.376 287.069 354.096 289.277 354.096ZM322.852 332.976V360H315.556V332.976H306.484V326.496H331.924V332.976H322.852ZM348.259 360V326.496H370.483V332.976H355.555V339.84H368.275V346.272H355.555V360H348.259ZM388.324 360.576C386.116 360.576 384.1 360.208 382.276 359.472C380.452 358.736 378.9 357.648 377.62 356.208C376.34 354.736 375.348 352.928 374.644 350.784C373.94 348.608 373.588 346.096 373.588 343.248C373.588 340.4 373.94 337.904 374.644 335.76C375.348 333.584 376.34 331.776 377.62 330.336C378.9 328.864 380.452 327.76 382.276 327.024C384.1 326.288 386.116 325.92 388.324 325.92C390.532 325.92 392.548 326.288 394.372 327.024C396.196 327.76 397.748 328.864 399.028 330.336C400.308 331.776 401.3 333.584 402.004 335.76C402.708 337.904 403.06 340.4 403.06 343.248C403.06 346.096 402.708 348.608 402.004 350.784C401.3 352.928 400.308 354.736 399.028 356.208C397.748 357.648 396.196 358.736 394.372 359.472C392.548 360.208 390.532 360.576 388.324 360.576ZM388.324 354.096C390.532 354.096 392.244 353.376 393.46 351.936C394.708 350.496 395.332 348.432 395.332 345.744V340.752C395.332 338.064 394.708 336 393.46 334.56C392.244 333.12 390.532 332.4 388.324 332.4C386.116 332.4 384.388 333.12 383.14 334.56C381.924 336 381.316 338.064 381.316 340.752V345.744C381.316 348.432 381.924 350.496 383.14 351.936C384.388 353.376 386.116 354.096 388.324 354.096ZM416.061 326.496V347.04C416.061 349.408 416.525 351.184 417.453 352.368C418.381 353.52 419.933 354.096 422.109 354.096C424.285 354.096 425.837 353.52 426.765 352.368C427.693 351.184 428.157 349.408 428.157 347.04V326.496H435.261V346.272C435.261 348.736 435.021 350.88 434.541 352.704C434.093 354.496 433.341 355.984 432.285 357.168C431.229 358.32 429.869 359.184 428.205 359.76C426.541 360.304 424.509 360.576 422.109 360.576C419.709 360.576 417.677 360.304 416.013 359.76C414.349 359.184 412.989 358.32 411.933 357.168C410.877 355.984 410.109 354.496 409.629 352.704C409.181 350.88 408.957 348.736 408.957 346.272V326.496H416.061ZM452.701 344.16L449.485 337.44H449.341V360H442.477V326.496H450.445L459.613 342.336L462.829 349.056H462.973V326.496H469.837V360H461.869L452.701 344.16ZM477.212 326.496H489.836C492.044 326.496 494.06 326.848 495.884 327.552C497.708 328.256 499.26 329.312 500.54 330.72C501.82 332.096 502.812 333.84 503.516 335.952C504.22 338.032 504.572 340.464 504.572 343.248C504.572 346.032 504.22 348.48 503.516 350.592C502.812 352.672 501.82 354.416 500.54 355.824C499.26 357.2 497.708 358.24 495.884 358.944C494.06 359.648 492.044 360 489.836 360H477.212V326.496ZM489.836 353.52C492.012 353.52 493.724 352.912 494.972 351.696C496.22 350.48 496.844 348.528 496.844 345.84V340.656C496.844 337.968 496.22 336.016 494.972 334.8C493.724 333.584 492.012 332.976 489.836 332.976H484.508V353.52H489.836Z" fill="black"/>
<circle cx="14.5" cy="237.5" r="14.5" fill="#009C60"/>
<ellipse opacity="0.3" cx="450.5" cy="372.5" rx="100.5" ry="8.5" fill="black" fill-opacity="0.72"/>
<ellipse opacity="0.3" cx="109" cy="372.5" rx="94" ry="8.5" fill="black" fill-opacity="0.71"/>
<ellipse opacity="0.3" cx="275.5" cy="372.5" rx="85.5" ry="7.5" fill="black" fill-opacity="0.71"/>
</svg>
